<?xml version="1.0" standalone="no"?>
<!DOCTYPE svg PUBLIC "-//W3C//DTD SVG 20010904//EN"
 "http://www.w3.org/TR/2001/REC-SVG-20010904/DTD/svg10.dtd">
<svg version="1.0" xmlns="http://www.w3.org/2000/svg"
 width="260.000000pt" height="260.000000pt" viewBox="0 0 260.000000 260.000000"
 preserveAspectRatio="xMidYMid meet">
<metadata>
Created by potrace 1.14, written by Peter Selinger 2001-2017
</metadata>
<g transform="translate(0.000000,260.000000) scale(0.100000,-0.100000)"
fill="#000000" stroke="none">
<path d="M737 2558 c-4 -32 -14 -50 -39 -71 -46 -39 -46 -39 -120 -80 -37 -21
-70 -42 -74 -48 -3 -6 -39 -26 -80 -45 -79 -36 -141 -86 -173 -138 -23 -36
-22 -57 3 -85 10 -11 13 -22 8 -25 -23 -14 -72 -118 -72 -152 0 -20 -8 -48
-19 -62 -23 -34 -61 -112 -61 -128 0 -6 -10 -23 -21 -38 -12 -15 -25 -42 -29
-60 -7 -34 4 -71 20 -61 5 3 11 1 15 -5 3 -5 21 -10 39 -10 53 0 98 -19 90
-39 -3 -9 -8 -36 -10 -60 -2 -34 -13 -57 -51 -105 -26 -33 -51 -62 -55 -64 -5
-2 -8 -10 -8 -17 0 -8 -6 -20 -14 -27 -23 -23 -46 -75 -51 -115 l-4 -38 18 37
c25 53 31 56 29 17 -2 -42 10 -85 26 -98 10 -9 11 -3 7 27 -15 88 12 165 90
255 44 52 56 78 52 112 -6 46 5 75 28 75 17 0 19 3 10 13 -8 10 -6 19 10 35
11 12 24 22 29 22 5 0 7 6 4 14 -4 11 98 146 112 146 9 0 -5 -72 -17 -86 -6
-8 -20 -14 -30 -14 -21 0 -24 -11 -8 -27 7 -7 2 -15 -17 -28 -26 -17 -27 -18
-9 -31 23 -17 59 -18 86 -3 21 11 63 91 68 129 0 6 21 31 46 58 25 26 65 75
88 109 23 34 46 63 52 63 5 0 40 10 78 22 62 19 75 20 133 9 56 -10 174 -56
174 -67 0 -10 -107 -69 -130 -72 -30 -3 -87 -29 -95 -42 -3 -6 -17 -10 -30
-10 -35 0 -85 -57 -85 -97 0 -18 2 -33 4 -33 2 0 28 16 56 35 41 28 56 33 66
24 8 -6 14 -17 14 -24 0 -23 31 -27 37 -5 3 11 9 20 13 20 4 0 23 11 42 23 19
13 41 23 49 21 7 -1 34 -5 59 -9 57 -8 110 -33 110 -51 0 -8 9 -19 20 -26 11
-7 20 -18 20 -25 0 -7 15 -29 34 -48 19 -19 36 -45 38 -58 2 -14 9 -21 21 -21
16 2 17 -5 12 -78 -6 -96 -19 -124 -86 -200 -98 -112 -215 -167 -354 -169 -79
-1 -118 4 -290 33 -148 25 -266 16 -330 -26 -126 -83 -149 -367 -43 -526 50
-74 141 -168 206 -211 30 -20 64 -53 75 -74 12 -21 30 -39 41 -41 78 -11 175
-49 223 -86 14 -11 36 -1 28 12 -3 5 -22 17 -42 27 -35 16 -132 106 -163 151
-8 12 -28 24 -44 26 -78 13 -192 143 -235 267 -30 87 -14 172 44 235 24 26 33
29 88 28 68 0 219 -50 335 -111 67 -35 110 -49 184 -58 179 -24 386 3 509 65
61 31 82 49 130 111 24 30 46 56 49 59 4 3 20 34 37 70 58 126 54 119 47 83
-7 -40 16 -46 35 -10 18 33 67 60 96 53 18 -5 26 -16 32 -44 10 -53 10 -53 -5
-100 -19 -57 -10 -63 22 -15 31 47 80 86 103 81 9 -2 28 -26 43 -54 25 -46 27
-58 25 -145 -1 -82 -6 -104 -35 -169 -45 -102 -67 -134 -141 -209 -103 -102
-170 -148 -342 -231 -221 -107 -317 -133 -527 -147 -47 -3 -89 -9 -95 -14 -5
-6 -1 -9 10 -10 11 0 29 -2 40 -5 84 -18 416 -25 500 -11 109 20 359 110 440
160 11 7 43 25 70 42 95 56 226 173 305 275 19 25 38 47 42 48 5 2 8 8 8 13 0
5 16 34 36 65 34 52 85 166 92 204 1 3 8 28 17 55 41 134 61 346 43 450 -11
58 -39 170 -47 185 -5 9 -12 31 -16 50 -7 36 -16 59 -63 165 -66 149 -186 295
-330 403 -13 9 -36 26 -50 38 -15 11 -34 24 -42 28 -8 3 -40 22 -70 41 -30 19
-70 42 -87 50 -18 8 -33 20 -33 25 0 6 -5 10 -11 10 -6 0 -48 22 -93 49 -101
60 -267 145 -325 166 -78 27 -145 18 -158 -24 -17 -48 5 -79 34 -50 9 9 18 5
38 -15 14 -14 29 -25 34 -23 11 3 71 -50 71 -62 0 -5 -8 -8 -17 -6 -10 2 -21
4 -25 4 -4 1 -5 8 -2 16 6 15 -16 20 -76 16 -69 -4 -121 -3 -127 2 -3 4 -1 13
5 20 17 21 5 26 -34 16 -19 -6 -39 -7 -44 -4 -6 3 -10 1 -10 -4 0 -6 -3 -10
-7 -9 -5 1 -26 -4 -47 -10 -41 -12 -61 -8 -50 10 15 24 -91 -2 -133 -33 -24
-17 -43 -28 -43 -25 0 3 -11 2 -23 -3 -13 -5 -30 -6 -37 -1 -13 8 -51 -10
-127 -60 l-42 -28 1 28 c1 24 6 30 32 36 68 15 272 205 219 204 -12 0 -39 -20
-28 -20 18 0 -81 -92 -131 -121 -67 -38 -80 -37 -21 2 60 39 107 93 108 124 1
14 2 33 3 42 0 9 -4 18 -10 20 -7 2 -14 -14 -17 -39z m-168 -232 c-58 -51
-118 -93 -109 -76 17 32 44 56 76 68 33 12 39 13 33 8z m-166 -90 c-3 -15 -10
-23 -18 -20 -7 3 -21 -8 -31 -25 -10 -17 -22 -31 -25 -31 -4 0 -9 -7 -11 -15
-2 -10 -7 -12 -18 -5 -20 12 0 46 53 87 51 39 55 39 50 9z m54 -455 c-1 -17
-6 -26 -10 -21 -8 7 -1 50 8 50 2 0 3 -13 2 -29z m-105 -79 c-12 -16 -28 -35
-37 -42 -14 -12 -15 -10 -6 13 18 47 43 79 54 68 6 -6 2 -20 -11 -39z m897 17
c11 -19 12 -21 0 -9 -8 8 -21 21 -29 29 -12 11 -12 12 -1 9 8 -2 21 -15 30
-29z m-1119 -103 c0 -3 -4 -8 -10 -11 -5 -3 -10 -1 -10 4 0 6 5 11 10 11 6 0
10 -2 10 -4z m1204 -81 l6 -30 -15 25 c-8 14 -14 32 -15 40 0 23 17 -2 24 -35z"/>
</g>
</svg>
